<svg xmlns="http://www.w3.org/2000/svg" version="1.1" xmlns:xlink="http://www.w3.org/1999/xlink" width="512" height="512" x="0" y="0" viewBox="0 0 24 24" style="enable-background:new 0 0 512 512" xml:space="preserve" class=""><g><g fill-rule="evenodd" clip-rule="evenodd"><path fill="#1a1a28" d="M19 6H7.92a1 1 0 0 0-.76.35l-4.285 5a1 1 0 0 0 0 1.3l4.286 5a1 1 0 0 0 .759.35H19a1 1 0 0 0 1-1V7a1 1 0 0 0-1-1zM7.92 4H19a3 3 0 0 1 3 3v10a3 3 0 0 1-3 3H7.92a3 3 0 0 1-2.278-1.048l-4.286-5a3 3 0 0 1 0-3.904l4.286-5A3 3 0 0 1 7.92 4z" opacity="1" data-original="#292929" class=""></path><g fill="#40f"><path d="M15.707 9.293a1 1 0 0 1 0 1.414l-4 4a1 1 0 0 1-1.414-1.414l4-4a1 1 0 0 1 1.414 0z" fill="#8d99ae" opacity="1" data-original="#4400ff" class=""></path><path d="M10.293 9.293a1 1 0 0 1 1.414 0l4 4a1 1 0 0 1-1.414 1.414l-4-4a1 1 0 0 1 0-1.414z" fill="#8d99ae" opacity="1" data-original="#4400ff" class=""></path></g></g></g></svg>