<svg xmlns="http://www.w3.org/2000/svg" version="1.1" xmlns:xlink="http://www.w3.org/1999/xlink" width="512" height="512" x="0" y="0" viewBox="0 0 64 64" style="enable-background:new 0 0 512 512" xml:space="preserve" class=""><g><path fill="#1a1a28" d="M47.36 12.13c2.07 1.26 2.78 3.78 1.95 5.87-.24.6-.6 1.17-1.1 1.66l-.17.17a4.819 4.819 0 0 1-5.83.71c-.91-.53-1.89-.94-2.92-1.21-.51-.14-1.04-.24-1.59-.3-.45-.06-.9-.08-1.37-.08-6.77 0-12.25 5.84-12.25 13.05 0 .68.05 1.35.14 2-.6 2.11-.91 4.32-.91 6.58 0 4.28 1.12 8.4 3.22 11.97a22.047 22.047 0 0 1-5.9-4.48c-4.05-4.31-6.28-10.02-6.28-16.07s2.23-11.76 6.28-16.07c2.01-2.14 4.36-3.83 6.99-5.01 2.76-1.25 5.69-1.88 8.71-1.88s5.95.63 8.71 1.88c.8.36 1.57.76 2.32 1.21z" opacity="1" data-original="#8358c8"></path><path fill="#8d99ae" d="M48.13 44.24c2.16 2.12 1.84 5.69-.66 7.4-.85.59-1.71 1.12-2.43 1.44-.37.17-.74.33-1.12.47-.19.07-.37.14-.57.21-2.25.79-4.6 1.2-7.02 1.2-3.02 0-5.95-.63-8.71-1.88-.02-.01-.05-.02-.08-.03-.34-.16-.68-.32-1.01-.5-2.1-3.57-3.22-7.69-3.22-11.97 0-2.26.31-4.47.91-6.58.12.83.31 1.63.57 2.4 1.4 4.18 4.75 7.37 8.89 8.35.3.07.61.13.92.18a11.557 11.557 0 0 0 7.6-1.47c1.9-1.1 4.29-.84 5.85.7z" opacity="1" data-original="#e681e5" class=""></path></g></svg>