<svg xmlns="http://www.w3.org/2000/svg" version="1.1" xmlns:xlink="http://www.w3.org/1999/xlink" width="512" height="512" x="0" y="0" viewBox="0 0 24 24" style="enable-background:new 0 0 512 512" xml:space="preserve" class=""><g><g fill-rule="evenodd" clip-rule="evenodd"><path fill="#1a1a28" d="M12 11a4 4 0 1 0 0 8 4 4 0 0 0 0-8zm-6 4a6 6 0 1 1 12 0 6 6 0 0 1-12 0z" opacity="1" data-original="#292929"></path><path fill="#e94560" d="M12 5a2 2 0 1 0 0 4 2 2 0 0 0 0-4zM8 7a4 4 0 1 1 8 0 4 4 0 0 1-8 0z" opacity="1" data-original="#4400ff" class=""></path></g></g></svg>