<svg xmlns="http://www.w3.org/2000/svg" version="1.1" xmlns:xlink="http://www.w3.org/1999/xlink" width="512" height="512" x="0" y="0" viewBox="0 0 24 24" style="enable-background:new 0 0 512 512" xml:space="preserve" class=""><g><g fill-rule="evenodd" clip-rule="evenodd"><path fill="#e94560" d="M10.468 20.847a1 1 0 0 1-.315-1.379l5.227-8.327a1 1 0 1 1 1.694 1.063l-5.227 8.328a1 1 0 0 1-1.379.315z" opacity="1" data-original="#4400ff"></path><path fill="#1a1a28" d="M12 13a4 4 0 1 0 0-8 4 4 0 0 0 0 8zm6-4A6 6 0 1 1 6 9a6 6 0 0 1 12 0z" opacity="1" data-original="#292929" class=""></path></g></g></svg>