<svg xmlns="http://www.w3.org/2000/svg" version="1.1" xmlns:xlink="http://www.w3.org/1999/xlink" width="512" height="512" x="0" y="0" viewBox="0 0 24 24" style="enable-background:new 0 0 512 512" xml:space="preserve" class=""><g><g fill-rule="evenodd" clip-rule="evenodd"><path fill="#1a1a28" d="M11 11c-.902 0-1.731.297-2.4.8a1 1 0 1 1-1.2-1.6 6 6 0 1 1 0 9.6 1 1 0 1 1 1.2-1.6A4 4 0 1 0 11 11z" opacity="1" data-original="#292929"></path><path fill="#e94560" d="M8.01 3.859A1 1 0 0 1 9 3h7a1 1 0 1 1 0 2h-5.7a.5.5 0 0 0-.494.43L8.99 11.14a1 1 0 0 1-1.98-.283z" opacity="1" data-original="#4400ff" class=""></path></g></g></svg>