<svg xmlns="http://www.w3.org/2000/svg" version="1.1" xmlns:xlink="http://www.w3.org/1999/xlink" width="512" height="512" x="0" y="0" viewBox="0 0 24 24" style="enable-background:new 0 0 512 512" xml:space="preserve" class=""><g><g fill-rule="evenodd" clip-rule="evenodd"><path fill="#1a1a28" d="M10 10a1 1 0 0 1 1-1 6 6 0 1 1-3.6 10.8 1 1 0 1 1 1.2-1.6A4 4 0 1 0 11 11a1 1 0 0 1-1-1z" opacity="1" data-original="#292929" class=""></path><path fill="#e94560" d="M7 4a1 1 0 0 1 1-1h8a1 1 0 0 1 .768 1.64l-5 6a1 1 0 1 1-1.536-1.28l2.95-3.54a.5.5 0 0 0-.385-.82H8a1 1 0 0 1-1-1z" opacity="1" data-original="#4400ff" class=""></path></g></g></svg>