<svg xmlns="http://www.w3.org/2000/svg" version="1.1" xmlns:xlink="http://www.w3.org/1999/xlink" width="512" height="512" x="0" y="0" viewBox="0 0 24 24" style="enable-background:new 0 0 512 512" xml:space="preserve" class=""><g><g fill-rule="evenodd" clip-rule="evenodd"><path fill="#1a1a28" d="M16 7a1 1 0 0 1 1 1v12a1 1 0 1 1-2 0V8a1 1 0 0 1 1-1z" opacity="1" data-original="#292929"></path><path fill="#e94560" d="M10.196 3.02a1 1 0 0 1 .785 1.176l-1.522 7.608a1 1 0 0 0 .98 1.196H16a1 1 0 1 1 0 2h-5.56a3 3 0 0 1-2.942-3.588l1.521-7.608a1 1 0 0 1 1.177-.785z" opacity="1" data-original="#4400ff" class=""></path></g></g></svg>