<svg xmlns="http://www.w3.org/2000/svg" version="1.1" xmlns:xlink="http://www.w3.org/1999/xlink" width="512" height="512" x="0" y="0" viewBox="0 0 24 24" style="enable-background:new 0 0 512 512" xml:space="preserve" class=""><g><g fill-rule="evenodd" clip-rule="evenodd"><path fill="#1a1a28" d="M14.121 5.879A3 3 0 0 0 9 8a1 1 0 0 1-2 0 5 5 0 1 1 8.535 3.535L9.88 17.192A3 3 0 0 0 9 19.314V20a1 1 0 1 1-2 0v-.686a5 5 0 0 1 1.464-3.536l5.657-5.657a3 3 0 0 0 0-4.242z" opacity="1" data-original="#292929" class=""></path><path fill="#e94560" d="M17 20a1 1 0 0 1-1 1H8a1 1 0 1 1 0-2h8a1 1 0 0 1 1 1z" opacity="1" data-original="#4400ff" class=""></path></g></g></svg>