<svg xmlns="http://www.w3.org/2000/svg" version="1.1" xmlns:xlink="http://www.w3.org/1999/xlink" width="512" height="512" x="0" y="0" viewBox="0 0 24 24" style="enable-background:new 0 0 512 512" xml:space="preserve" class=""><g><g fill-rule="evenodd" clip-rule="evenodd"><path fill="#e94560" d="M16.447 3.106a1 1 0 0 1 .447 1.341l-8 16a1 1 0 1 1-1.788-.894l8-16a1 1 0 0 1 1.341-.447z" opacity="1" data-original="#4400ff"></path><g fill="#292929"><path d="M7 3a1 1 0 0 1 1 1v6a1 1 0 1 1-2 0V4a1 1 0 0 1 1-1z" fill="#8d99ae" opacity="1" data-original="#292929" class=""></path><path d="M3 7a1 1 0 0 1 1-1h6a1 1 0 1 1 0 2H4a1 1 0 0 1-1-1zM13 17a1 1 0 0 1 1-1h6a1 1 0 1 1 0 2h-6a1 1 0 0 1-1-1z" fill="#8d99ae" opacity="1" data-original="#292929" class=""></path></g></g></g></svg>